<svg width="552" height="565" viewBox="0 0 552 565" fill="none" xmlns="http://www.w3.org/2000/svg">
<circle cx="373" cy="192" r="372.5" stroke="url(#paint0_linear_5560_13493)" stroke-opacity="0.19"/>
<circle cx="373.5" cy="192.5" r="280" stroke="url(#paint1_linear_5560_13493)" stroke-opacity="0.19"/>
<g filter="url(#filter0_d_5560_13493)">
<path d="M510.331 124.063L519.264 198.662L485.519 205.204L480.509 215.806L479.363 227.201L504.746 250.422L458.416 309.124L429.768 290.04L419.538 293.766L410.378 301.119L411.964 335.324L337.076 344.292L330.541 310.68L319.903 305.697L308.467 304.566L285.752 329.802L226.871 283.699L246.053 255.141L242.249 244.339L234.876 235.219L200.551 236.829L191.617 162.23L224.746 155.762L229.757 145.16L230.902 133.765L205.519 110.544L251.849 51.8419L280.497 70.9261L291.343 67.1267L300.503 59.7734L298.918 25.5683L373.805 16.6002L380.341 50.2125L390.978 55.1949L402.415 56.3259L425.746 31.017L484.627 77.12L465.445 105.678L469.249 116.48L476.621 125.599L510.34 124.062L510.331 124.063ZM415.029 161.746L320.482 121.792C309.218 116.885 300.526 122.927 302.077 135.877L314.258 237.593C315.734 249.919 325.065 254.435 335.394 246.32L417.835 185.171C428.164 177.055 426.908 166.57 415.029 161.746Z" fill="white" fill-opacity="0.23" shape-rendering="crispEdges"/>
<path d="M476.644 126.099L509.889 124.583L518.712 198.26L485.424 204.713L485.176 204.761L485.067 204.99L480.057 215.592L480.02 215.67L480.011 215.756L478.865 227.151L478.84 227.4L479.025 227.57L504.065 250.477L458.309 308.452L430.045 289.624L429.835 289.484L429.597 289.57L419.367 293.296L419.29 293.324L419.225 293.376L410.065 300.729L409.867 300.888L409.879 301.142L411.443 334.883L337.478 343.74L331.032 310.584L330.983 310.335L330.753 310.227L320.115 305.245L320.038 305.208L319.952 305.2L308.516 304.069L308.264 304.044L308.095 304.232L285.692 329.12L227.545 283.592L246.468 255.419L246.608 255.211L246.524 254.975L242.721 244.173L242.692 244.091L242.638 244.024L235.265 234.905L235.106 234.708L234.853 234.72L200.992 236.308L192.169 162.632L224.842 156.253L225.09 156.205L225.198 155.976L230.209 145.374L230.245 145.296L230.254 145.21L231.4 133.815L231.425 133.566L231.24 133.397L206.2 110.489L251.956 52.5138L280.22 71.3422L280.427 71.4804L280.662 71.398L291.508 67.5986L291.589 67.5702L291.656 67.5166L300.816 60.1633L301.015 60.0042L301.003 59.7502L299.439 26.0095L373.403 17.1519L379.85 50.308L379.898 50.5575L380.129 50.6653L390.766 55.6477L390.844 55.6841L390.929 55.6925L402.365 56.8235L402.613 56.848L402.782 56.6648L425.801 31.6951L483.953 77.2271L465.03 105.399L464.89 105.607L464.973 105.844L468.777 116.646L468.806 116.727L468.86 116.794L476.233 125.914L476.392 126.11L476.644 126.099ZM418.132 185.572L418.133 185.572L418.144 185.564C423.388 181.443 425.792 176.638 425.256 172.165C424.72 167.685 421.26 163.738 415.22 161.284C415.219 161.284 415.218 161.283 415.218 161.283L320.681 121.334C320.681 121.334 320.68 121.333 320.679 121.333C314.945 118.836 309.753 119.08 306.176 121.737C302.597 124.395 300.792 129.352 301.58 135.936L313.761 237.653C314.512 243.918 317.277 248.329 321.307 250.081C325.343 251.835 330.451 250.837 335.698 246.717C335.7 246.716 335.701 246.714 335.703 246.713L418.132 185.572Z" stroke="#E12C34" stroke-opacity="0.06" shape-rendering="crispEdges"/>
</g>
<defs>
<filter id="filter0_d_5560_13493" x="182.617" y="11.6001" width="345.646" height="345.692" filterUnits="userSpaceOnUse" color-interpolation-filters="sRGB">
<feFlood flood-opacity="0" result="BackgroundImageFix"/>
<feColorMatrix in="SourceAlpha" type="matrix" values="0 0 0 0 0 0 0 0 0 0 0 0 0 0 0 0 0 0 127 0" result="hardAlpha"/>
<feOffset dy="4"/>
<feGaussianBlur stdDeviation="4.5"/>
<feComposite in2="hardAlpha" operator="out"/>
<feColorMatrix type="matrix" values="0 0 0 0 0 0 0 0 0 0 0 0 0 0 0 0 0 0 0.04 0"/>
<feBlend mode="normal" in2="BackgroundImageFix" result="effect1_dropShadow_5560_13493"/>
<feBlend mode="normal" in="SourceGraphic" in2="effect1_dropShadow_5560_13493" result="shape"/>
</filter>
<linearGradient id="paint0_linear_5560_13493" x1="373" y1="-181" x2="373" y2="565" gradientUnits="userSpaceOnUse">
<stop stop-color="#E12C34"/>
<stop offset="1" stop-color="#FFD2D2"/>
</linearGradient>
<linearGradient id="paint1_linear_5560_13493" x1="373.5" y1="-88" x2="373.5" y2="473" gradientUnits="userSpaceOnUse">
<stop stop-color="#E12C34"/>
<stop offset="1" stop-color="#FFD2D2"/>
</linearGradient>
</defs>
</svg>
